<svg width="146" height="54" viewBox="0 0 146 54" fill="none" xmlns="http://www.w3.org/2000/svg">
<g clip-path="url(#clip0_2874_4892)">
<path d="M34.2 48.4016V51.6016H33.3V51.0016C32.8 51.4016 32.2 51.7016 31.4 51.7016C30.2 51.7016 29.5 51.0016 29.5 50.1016C29.5 49.2016 30.3 48.5016 31.7 48.5016H33.3C33.3 47.5016 32.7 46.9016 31.7 46.9016C31 46.9016 30.5 47.2016 30.1 47.5016L29.7 46.9016C30.3 46.4016 31 46.2016 31.8 46.2016C33.3 46.2016 34.2 46.9016 34.2 48.4016ZM33.3 50.1016V49.2016H31.8C30.8 49.2016 30.4 49.6016 30.4 50.1016C30.4 50.6016 30.8 51.0016 31.5 51.0016C32.2 51.0016 32.9 50.6016 33.3 50.1016ZM102 47.0016L101.5 47.6016C101.1 47.2016 100.6 47.0016 100 47.0016C98.9 47.0016 98.1 47.8016 98.1 49.0016C98.1 50.2016 98.9 51.0016 100 51.0016C100.6 51.0016 101.1 50.7016 101.5 50.4016L102 51.0016C101.5 51.5016 100.8 51.9016 100 51.9016C98.4 51.9016 97.2 50.7016 97.2 49.1016C97.2 47.5016 98.3 46.3016 100 46.3016C100.8 46.2016 101.5 46.5016 102 47.0016ZM108.5 48.9016C108.5 50.5016 107.3 51.7016 105.7 51.7016C104.1 51.7016 102.9 50.5016 102.9 48.9016C102.9 47.3016 104.1 46.1016 105.7 46.1016C107.3 46.2016 108.5 47.4016 108.5 48.9016ZM103.8 48.9016C103.8 50.1016 104.7 50.9016 105.7 50.9016C106.8 50.9016 107.6 50.1016 107.6 48.9016C107.6 47.8016 106.7 46.9016 105.7 46.9016C104.6 47.0016 103.8 47.8016 103.8 48.9016ZM119 48.3016V51.6016H118.1V48.6016C118.1 47.6016 117.5 47.0016 116.5 47.0016C115.6 47.0016 114.9 47.6016 114.9 48.6016V51.6016H114V48.6016C114 47.6016 113.4 47.0016 112.5 47.0016C111.6 47.0016 110.9 47.6016 110.9 48.6016V51.6016H110V46.3016H110.8V47.0016C111.2 46.4016 111.9 46.1016 112.6 46.1016C113.5 46.1016 114.3 46.5016 114.6 47.2016C115 46.4016 115.9 46.1016 116.6 46.1016C118.1 46.2016 119 47.0016 119 48.3016ZM126.3 48.9016C126.3 50.5016 125.1 51.7016 123.6 51.7016C122.7 51.7016 122.1 51.3016 121.7 50.8016V53.8016H120.9V46.2016H121.8V47.0016C122.2 46.5016 122.9 46.1016 123.7 46.1016C125.2 46.2016 126.3 47.3016 126.3 48.9016ZM121.7 48.9016C121.7 50.0016 122.5 50.9016 123.6 50.9016C124.7 50.9016 125.5 50.0016 125.5 48.9016C125.5 47.8016 124.7 46.9016 123.6 46.9016C122.5 47.0016 121.7 47.8016 121.7 48.9016ZM132.4 48.4016V51.6016H131.5V51.0016C131 51.4016 130.4 51.7016 129.6 51.7016C128.4 51.7016 127.7 51.0016 127.7 50.1016C127.7 49.2016 128.5 48.5016 129.9 48.5016H131.5C131.5 47.5016 130.9 46.9016 129.9 46.9016C129.2 46.9016 128.7 47.2016 128.3 47.5016L127.9 46.9016C128.5 46.4016 129.2 46.2016 130 46.2016C131.5 46.2016 132.4 46.9016 132.4 48.4016ZM131.6 50.1016V49.2016H130.1C129.1 49.2016 128.7 49.6016 128.7 50.1016C128.7 50.6016 129.1 51.0016 129.8 51.0016C130.5 51.0016 131.1 50.6016 131.6 50.1016ZM139.2 48.3016V51.6016H138.3V48.6016C138.3 47.6016 137.7 47.0016 136.8 47.0016C135.9 47.0016 135.2 47.6016 135.2 48.6016V51.6016H134.3V46.3016H135.1V47.0016C135.5 46.4016 136.2 46.1016 136.9 46.1016C138.3 46.2016 139.2 47.0016 139.2 48.3016ZM141.5 53.9016H140.6L142.6 50.5016L140.1 46.3016H141L143 49.7016L144.9 46.3016H145.8L141.5 53.9016Z" fill="#3C3C3C"/>
<path fill-rule="evenodd" clip-rule="evenodd" d="M86.4001 46.9984L83.2001 43.4984H82.4001V51.5984H84.5001V47.9984L86.2001 49.7984H86.4001L88.1001 47.9984V51.5984H90.2001V43.4984H89.5001L86.4001 46.9984ZM66.6001 48.6984C68.6001 47.2984 68.1001 43.4984 64.9001 43.4984H61.4001V51.5984H62.4001L63.5001 49.1984H64.6001L66.0001 51.5984H68.3001V51.2984L66.6001 48.6984ZM64.9001 47.3984H63.4001V45.3984H64.9001C66.1001 45.3984 66.0001 47.3984 64.9001 47.3984ZM56.3001 51.5984H58.3001V51.2984L54.7001 43.3984H53.8001L50.2001 51.2984V51.5984H52.2001L52.7001 50.5984H55.9001L56.3001 51.5984ZM55.1001 48.7984H53.3001L54.2001 46.6984L55.1001 48.7984ZM42.6001 51.5984L43.7001 49.4984H45.2001C49.1001 49.4984 49.1001 43.4984 45.2001 43.4984H41.6001V51.5984H42.6001ZM45.1001 47.6984H43.6001V45.3984H45.1001C46.3001 45.3984 46.3001 47.6984 45.1001 47.6984ZM77.4001 51.5984H79.4001V51.2984L75.8001 43.3984H74.9001L71.3001 51.2984V51.5984H73.3001L73.8001 50.5984H76.9001L77.4001 51.5984ZM76.3001 48.7984H74.5001L75.4001 46.6984L76.3001 48.7984Z" fill="#4D008C"/>
<path d="M4.4 10.4016H0V15.7016H4.4V36.2016H10.5V15.8016H15.8V10.5016H10.5C10.5 6.70156 11 5.60156 15.8 5.60156V0.101562H15.3C7.3 0.101562 4.4 3.00156 4.4 10.4016Z" fill="#FF671D"/>
<path d="M22.9 8.59844C24.6121 8.59844 26 7.21052 26 5.49844C26 3.78635 24.6121 2.39844 22.9 2.39844C21.188 2.39844 19.8 3.78635 19.8 5.49844C19.8 7.21052 21.188 8.59844 22.9 8.59844Z" fill="#FF671D"/>
<path d="M20 10.5H26V36.4H20V10.5ZM43.8 10C40.4 10 37.8 11.5 36.1 13.7V10.5H30.2V36.4H36.2V22.2C36.2 17.7 38.8 15.2 42.3 15.2C46.2 15.2 48.1 17.7 48.1 21.7V36.4H54.2V21C54.1 14 50.3 10 43.8 10ZM139.8 10.5V13.6C137.9 11.3 134.9 10 131.5 10C125 10 118.7 14.9 118.7 23.5C118.7 32 125.2 36.9 131.4 36.9C134.8 36.9 137.9 35.4 139.8 33V36.4H145.8V10.5H139.8ZM132.4 31.4C128 31.4 124.6 27.9 124.6 23.4C124.6 18.9 128 15.5 132.4 15.5C136.9 15.5 140.1 19 140.1 23.4C140.1 27.8 136.9 31.4 132.4 31.4ZM117.4 15.7V10.5H112.2V5.5H106.2V10.5H98.3C98.3 10.5 100.9 12.3 102.5 15.7H106.3V25.5C106.3 33.7 108.7 36.3 116.7 36.3H117.6V30.7C113 30.7 112.4 30 112.4 25.5V15.7H117.4ZM72.4 17C73.2 15.1 74.4 13.4 75.9 12C73.6 10.3 70.9 10.4 70.9 10.4C68.4 10.5 65.5 11.7 64.3 14.3V10.5H58.4V36.4H64.4V22.6C64.4 18.4 67.4 15.2 71.4 16.4C71.7 16.4 72.1 16.7 72.4 17Z" fill="#FF671D"/>
<path d="M82.7 11.0986C75.8 13.7986 72.4 21.6986 75.1 28.5986C77.8 35.4986 85.7 38.8986 92.6 36.1986C99.5 33.4986 102.9 25.5986 100.2 18.6986C97.5 11.7986 89.7 8.39857 82.7 11.0986ZM90.6 31.0986C86.5 32.6986 81.9 30.6986 80.2 26.5986C78.5 22.4986 80.6 17.8986 84.7 16.1986C88.8 14.5986 93.4 16.5986 95.1 20.6986C96.8 24.7986 94.7 29.4986 90.6 31.0986Z" fill="url(#paint0_linear_2874_4892)"/>
<path d="M80.2 12.4998C80.2 12.4998 88.9 8.29975 93.9 17.6998C94.5 18.7998 95.4 20.9998 95.5 22.5998L92.4 22.6998L99.5 30.1998L104.4 21.3997L101.6 21.8997C101.6 21.8997 100.9 12.7997 90 10.3997C90 10.2997 85.1 9.19975 80.2 12.4998Z" fill="#FF671D"/>
</g>
<defs>
<linearGradient id="paint0_linear_2874_4892" x1="83.6999" y1="30.9291" x2="93.8857" y2="12.4817" gradientUnits="userSpaceOnUse">
<stop offset="0.016" stop-color="#FF7420"/>
<stop offset="0.938" stop-color="#C4410D"/>
</linearGradient>
<clipPath id="clip0_2874_4892">
<rect width="145.8" height="53.9" fill="white"/>
</clipPath>
</defs>
</svg>
