<?xml version="1.0" encoding="utf-8"?>
<svg xmlns="http://www.w3.org/2000/svg" height="35.241" viewBox="0 0 147.319 35.241" width="147.319">
  <g data-name="Group 6089" id="Group_6089" transform="translate(892.292 3263.058)">
    <path d="M-452.359-3222.291c-.233-4.877-3.735-7.321-7.445-8.507a11.44,11.44,0,0,0-5.749-.315,11.379,11.379,0,0,0-5.443,2.8c-.717.661-.823.611-1.574-.042a10.86,10.86,0,0,0-12.135-2.014,13.09,13.09,0,0,0-1.32.672,1.191,1.191,0,0,0-1.176-1.043h-2.728a1.2,1.2,0,0,0-1.191,1.191v23.636a1.2,1.2,0,0,0,1.191,1.191h2.728a1.2,1.2,0,0,0,1.191-1.191v-16.7a5.42,5.42,0,0,1,2.6-3.5,6.009,6.009,0,0,1,6.061-.2,6.157,6.157,0,0,1,3.075,4.521v15.231a1.2,1.2,0,0,0,1.191,1.191h2.728a1.194,1.194,0,0,0,1.191-1.191v-15.6a5.572,5.572,0,0,1,2.815-4.03,6.219,6.219,0,0,1,6.158.005,5.656,5.656,0,0,1,2.679,3.484,3.872,3.872,0,0,1,.121,1.038v15.623a1.177,1.177,0,0,0,1.174,1.174h2.688a1.177,1.177,0,0,0,1.174-1.174v-9.491s0-4.055,0-5.391C-452.359-3220.921-452.333-3221.742-452.359-3222.291Z" data-name="Path 21276" fill="#26d07e" id="Path_21276" transform="translate(-292.625 -23.096)"/>
    <path d="M-619.578-3263.058h-2.728a1.2,1.2,0,0,0-1.191,1.191v10.28a.335.335,0,0,1-.386,0,13.564,13.564,0,0,0-17.407.74,12.905,12.905,0,0,0-1.983,17.13,13.22,13.22,0,0,0,9.9,5.73q.7.068,1.383.068a13.087,13.087,0,0,0,8.329-3.033.218.218,0,0,1,.163-.043v1.889a1.2,1.2,0,0,0,1.191,1.191h2.728a1.194,1.194,0,0,0,1.191-1.191v-32.757A1.2,1.2,0,0,0-619.578-3263.058Zm-12.432,30.794h0a8.531,8.531,0,0,1-6.094-2.55,9,9,0,0,1-2.6-6.466,8.9,8.9,0,0,1,2.695-6.31A8.539,8.539,0,0,1-632-3250.1h.078a8.528,8.528,0,0,1,6.092,2.674,9.023,9.023,0,0,1,2.339,4.416v3.736A8.771,8.771,0,0,1-632.01-3232.264Z" data-name="Path 21277" fill="#26d07e" id="Path_21277" transform="translate(-179.905)"/>
    <path d="M-729.772-3212.865c-1.85.035-3.005.342-4.164,1.723a7.6,7.6,0,0,1-7.929,2.514,8.6,8.6,0,0,1-6.514-6.114c-.219-.651-.15-.819-.124-.855s.187-.177.975-.163c3.393.051,6.841.047,10.177.044,2.9,0,5.892-.005,8.837.027a2.173,2.173,0,0,0,1.656-.485,2.162,2.162,0,0,0,.377-1.672,13.544,13.544,0,0,0-5.183-9.873,13.666,13.666,0,0,0-10.947-2.592,13.592,13.592,0,0,0-7.836,4.461,12.943,12.943,0,0,0-3.206,8.275,13.205,13.205,0,0,0,2.909,8.424,13.5,13.5,0,0,0,7.636,4.717,14.272,14.272,0,0,0,3.038.33,13.485,13.485,0,0,0,12.434-8.134l.13-.3a.233.233,0,0,0-.214-.327Zm-2.593-7.171h-3.023c-4.141,0-8.423,0-12.633.012a.233.233,0,0,1-.228-.3l.014-.051a8.03,8.03,0,0,1,3.256-4.285,8.612,8.612,0,0,1,5.316-1.58,8.559,8.559,0,0,1,7.625,5.772A.337.337,0,0,1-732.365-3220.035Z" data-name="Path 21278" fill="#26d07e" id="Path_21278" transform="translate(-101.127 -23.716)"/>
    <path d="M-526.053-3261.581h0a3.161,3.161,0,0,0-3.172,3.073,3.131,3.131,0,0,0,.959,2.251,3.2,3.2,0,0,0,2.225.936h.014a3.125,3.125,0,0,0,3-2.209A3.121,3.121,0,0,0-526.053-3261.581Z" data-name="Path 21279" fill="#26d07e" id="Path_21279" transform="translate(-264.827 -1.077)"/>
    <path d="M-523.045-3228.971h-2.728a1.2,1.2,0,0,0-1.191,1.191v23.636a1.194,1.194,0,0,0,1.191,1.191h2.728a1.194,1.194,0,0,0,1.191-1.191v-23.636A1.2,1.2,0,0,0-523.045-3228.971Z" data-name="Path 21280" fill="#26d07e" id="Path_21280" transform="translate(-266.48 -24.864)"/>
    <path d="M-871.291-3229.957c-.074-.061-1.674-1.449-2.378-2.162-2.742-2.776-5.359-5.49-8.069-8.237-.457-.447-1.086-1.153-1.084-1.4s.218-.56.748-1.066c2.281-2.177,4.523-4.465,6.692-6.677q.858-.875,1.717-1.748a1.722,1.722,0,0,1,.158-.133,1.188,1.188,0,0,0,.557-1.3h0a.444.444,0,0,0-.431-.339h0c-.315,0-.761-.011-1.067-.015-.758-.008-1.158-.019-1.85,0a4.616,4.616,0,0,0-3.766,1.554c-1.835,1.993-3.782,3.95-5.666,5.843q-.71.713-1.418,1.427c-.012.013-.02.026-.032.039v-17.683a1.2,1.2,0,0,0-1.191-1.2H-891.1a1.2,1.2,0,0,0-1.191,1.2v32.85a1.2,1.2,0,0,0,1.191,1.2h2.728a1.2,1.2,0,0,0,1.191-1.2v-10.172a.216.216,0,0,1,.167.064l.209.219,1.417,1.472c2.238,2.388,4.233,4.339,6.413,6.854,1.382,1.594,2.6,2.672,4.367,2.712.822.018,1.3.006,2.2,0,.364,0,.894-.019,1.268-.019h0a.535.535,0,0,0,.512-.427h0A1.532,1.532,0,0,0-871.291-3229.957Z" data-name="Path 21281" fill="#26d07e" id="Path_21281"/>
    <path d="M-788.581-3230.9a1.659,1.659,0,0,0-1.26-.266c-5.763.544-10.181,3.652-10.39,9.3a1.171,1.171,0,0,0-.03.258v15.848a1.2,1.2,0,0,0,1.191,1.191h2.728a1.2,1.2,0,0,0,1.191-1.191v-14.877a5.823,5.823,0,0,1,4.789-5.9c2.189-.37,2.306-1.587,2.232-3.019A1.788,1.788,0,0,0-788.581-3230.9Z" data-name="Path 21282" fill="#26d07e" id="Path_21282" transform="translate(-67.13 -23.251)"/>
  </g>
</svg>