<svg width="533" height="67" viewBox="0 0 533 67" fill="none" xmlns="http://www.w3.org/2000/svg">
<g clip-path="url(#clip0_11737_5197)">
<path d="M305.53 65.9198V15.2898H286.63V1.2998H340.73V15.2898H321.83V65.9198H305.53Z" fill="#00BBB4"/>
<path d="M398.72 1.15039V15.0004H367.56V26.2504H389.49L386.46 39.6704H367.71V52.2204H399.45V66.0704H351.41V1.30039H398.73V1.16039L398.72 1.15039Z" fill="#00BBB4"/>
<path d="M406.51 33.47C406.51 14.43 421.51 0 440.99 0C451.23 0 459.31 3.32 465.51 9.09L454.55 20.05C451.52 16.73 447.05 14.57 440.99 14.57C430.6 14.57 423.25 21.93 423.25 33.32C423.25 44.71 430.61 52.22 440.99 52.22C447.05 52.22 451.66 50.34 454.98 46.74L465.94 57.7C459.59 63.47 451.95 66.79 441.27 66.79C421.36 66.93 406.5 52.51 406.5 33.47H406.51Z" fill="#00BBB4"/>
<path d="M476.47 65.9204V1.15039H492.77V25.8204H515.99V1.15039H532.29V65.9204H515.99V39.6704H492.77V65.9204H476.47Z" fill="#00BBB4"/>
<path d="M50.49 22.0698C50.49 27.9798 48.47 33.0298 44.43 37.0698C40.39 41.1098 35.34 43.2698 29.14 43.2698H9.09L5.48 66.0598H0V1.2998H29.72C35.63 1.2998 40.54 3.3198 44.58 7.2098C48.33 11.0998 50.49 16.1498 50.49 22.0698ZM41.26 22.0698C41.26 18.3198 39.82 15.2898 37.22 12.6898C34.62 10.0898 31.31 8.7998 27.41 8.7998H9.09V35.6298H26.98C31.02 35.6298 34.48 34.3298 37.22 31.7398C39.96 29.1398 41.26 25.8298 41.26 22.0698Z" fill="#49267F"/>
<path d="M95.79 21.6399H101.99V65.9299H93.62V59.7299C92.18 61.7499 90.3 63.4799 87.85 64.6299C85.4 66.0699 82.22 66.7899 78.76 66.7899C74.72 66.7899 71.11 65.7799 67.8 63.7599C64.48 61.7399 61.89 58.9999 60.01 55.3899C58.13 52.0699 57.27 48.0299 57.27 43.7099C57.27 39.3899 58.14 35.4899 60.01 32.0299C62.03 28.4199 64.48 25.6799 67.8 23.6599C71.12 21.4999 74.87 20.6299 78.76 20.6299C82.22 20.6299 85.25 21.3499 87.85 22.7899C90.16 23.9399 91.89 25.6799 93.62 27.6899V27.5499L95.78 21.6399H95.79ZM94.05 43.8499C94.05 40.8199 93.62 38.2199 92.32 35.9199C91.17 33.6099 89.58 31.8799 87.42 30.4399C85.26 29.2899 82.8 28.7099 80.06 28.7099C77.32 28.7099 74.72 29.4299 72.7 30.5899C70.39 31.8899 68.81 33.7599 67.65 36.0699C66.35 38.2299 65.77 40.8299 65.77 43.8599C65.77 46.8899 66.35 49.4899 67.65 51.6499C68.8 53.9599 70.39 55.6899 72.7 56.9899C74.72 58.2899 77.32 59.0099 80.06 59.0099C84.24 59.0099 87.56 57.5699 90.3 54.8299C92.9 51.9399 94.05 48.3399 94.05 43.8699V43.8499Z" fill="#49267F"/>
<path d="M148.15 25.6799L142.52 31.3099C141.65 30.4399 140.64 29.5799 139.49 29.2899C138.34 28.8599 137.04 28.5699 135.6 28.5699C132.43 28.5699 129.97 29.4399 127.95 31.4599C125.93 33.4799 124.92 36.5099 124.92 40.5499V65.7899H116.55V21.6399H123.04L125.06 26.8299V26.9699C125.35 26.5399 125.49 26.2499 125.78 25.8199C128.38 22.4999 132.13 20.9199 137.03 20.9199C139.34 20.9199 141.36 21.3499 143.09 22.0699C144.82 22.7899 146.55 24.0899 148.14 25.6799H148.15Z" fill="#49267F"/>
<path d="M192.15 21.6399H198.35V65.9299H189.98V59.7299C188.54 61.7499 186.66 63.4799 184.21 64.6299C181.76 66.0699 178.58 66.7899 175.12 66.7899C171.08 66.7899 167.47 65.7799 164.16 63.7599C160.84 61.7399 158.25 58.9999 156.37 55.3899C154.49 52.0699 153.63 48.0299 153.63 43.7099C153.63 39.3899 154.5 35.4899 156.37 32.0299C158.39 28.4199 160.84 25.6799 164.16 23.6599C167.48 21.4999 171.23 20.6299 175.12 20.6299C178.58 20.6299 181.61 21.3499 184.21 22.7899C186.52 23.9399 188.25 25.6799 189.98 27.6899V27.5499L192.14 21.6399H192.15ZM190.42 43.8499C190.42 40.8199 189.99 38.2199 188.69 35.9199C187.54 33.6099 185.95 31.8799 183.79 30.4399C181.63 29.2899 179.17 28.7099 176.43 28.7099C173.69 28.7099 171.09 29.4299 169.07 30.5899C166.76 31.8899 165.18 33.7599 164.02 36.0699C162.72 38.2299 162.14 40.8299 162.14 43.8599C162.14 46.8899 162.72 49.4899 164.02 51.6499C165.17 53.9599 166.76 55.6899 169.07 56.9899C171.09 58.2899 173.69 59.0099 176.43 59.0099C180.61 59.0099 183.93 57.5699 186.67 54.8299C189.12 51.9399 190.42 48.3399 190.42 43.8699V43.8499Z" fill="#49267F"/>
<path d="M280.58 37.5095V65.9295H272.07V39.0995C272.07 35.7795 271.2 33.1895 269.04 31.3095C267.02 29.2895 264.57 28.4195 261.54 28.4195C259.52 28.4195 257.65 28.8495 255.91 29.8595C254.32 30.7295 253.02 31.8795 252.02 33.4695C251.02 35.0595 250.58 36.7895 250.58 39.0995V65.9295H242.21V39.0995C242.21 35.7795 241.2 33.1895 239.18 31.3095C237.16 29.2895 234.56 28.4195 231.53 28.4195C229.51 28.4195 227.64 28.8495 226.05 29.8595C224.32 30.7295 223.16 31.8795 222.16 33.4695C221.16 35.0595 220.72 36.7895 220.72 39.0995V65.9295H212.35V21.6395H218.84L220.86 26.8295V27.1195C222.16 25.3895 223.6 23.9495 225.76 22.7895C228.21 21.4895 231.24 20.7695 234.27 20.7695C237.3 20.7695 240.33 21.4895 242.78 22.7895C245.23 24.0895 247.4 26.1095 248.69 28.5595C248.69 28.6529 248.737 28.7495 248.83 28.8495V28.7095C250.56 26.2595 252.72 24.3795 255.32 22.7995C257.92 21.4995 260.8 20.7795 263.98 20.7795C267.16 20.7795 270.18 21.4995 272.64 22.7995C275.24 24.0995 277.26 26.1195 278.84 28.5695C279.85 31.0195 280.57 34.0495 280.57 37.5095H280.58Z" fill="#49267F"/>
</g>
<defs>
<clipPath id="clip0_11737_5197">
<rect width="532.3" height="66.79" fill="white"/>
</clipPath>
</defs>
</svg>
