<?xml version="1.0" encoding="UTF-8"?>
<svg xmlns="http://www.w3.org/2000/svg" id="Layer_1" version="1.1" viewBox="0 0 607.1 317.4">
  <defs>
    <style>
      .st0 {
        fill: #4d008c;
        fill-rule: evenodd;
      }

      .st1 {
        fill: #3c3c3c;
      }

      .st2 {
        fill: #34454f;
      }

      .st3 {
        fill: #b93042;
      }
    </style>
  </defs>
  <g>
    <path class="st3" d="M212.2,119.1c0-9.2,7.5-16.7,16.7-16.7s16.7,7.5,16.7,16.7-7.4,16.7-16.7,16.7c-9.2,0-16.7-7.5-16.7-16.7"></path>
    <path class="st3" d="M261.3,67.5c0-7.3,5.9-13.3,13.3-13.3s13.3,6,13.3,13.3-6,13.3-13.3,13.3c-7.4,0-13.3-6-13.3-13.3"></path>
    <path class="st3" d="M228.3,18.4c0-8.9,7.2-16.1,16.2-16.1s16.1,7.2,16.1,16.1-7.2,16.1-16.1,16.1-16.2-7.2-16.2-16.1"></path>
    <path class="st3" d="M147,60.2c0-12.2,9.9-22.1,22.1-22.1s22.1,9.9,22.1,22.1-9.9,22.1-22.1,22.1c-12.2,0-22.1-9.9-22.1-22.1"></path>
    <path class="st2" d="M83.7,224.1v-10.8c-.1-5.4-.2-11.8-.2-19,0-13.4,0-22.1.2-27.3.1-5.4.1-8.5.1-9.5v-3.3h-20.5v3.3c0,.7,0,5.3.1,13.5.1,7.4.1,14.5.1,21.2v28.2c-2.9,1.6-6.9,3.4-11.9,5.4-5.9,2.3-11.4,3.5-16.3,3.5s-7-1.1-8.6-3.4c-1.9-2.4-2.9-6.7-3.1-12.4v-26.6c0-2.5,0-5.5.1-8.9,0-2.6.1-5.4.1-8.5.1-7.3.1-11.4.1-12.1v-3.3H3.6v3.3c0,1,0,5.1.1,12.7.1,7.4.1,13.8.1,18.8v29.5c0,9.1,2.6,16.4,7.8,21.6,5.2,5.2,12.3,7.8,21.2,7.8s13.1-1.4,19.6-4.3c4.2-1.8,7.9-3.5,11.1-5.2v7.5h20.2v-3.3c0-7.3,0-13.4,0-18.4"></path>
    <path class="st2" d="M190.9,230.4c-.1-7.6-.1-14-.1-19.1v-30.8c0-8.7-2.6-15.8-7.9-20.9-5.1-5.1-12-7.7-20.4-7.7s-8.7.9-14.7,2.9c-4.5,1.4-9.7,3.6-16.7,7.2v-7.7h-20.3v3.3c.3,9.3.4,18,.4,25.2v20.6c0,12.5,0,22.2-.1,28.8,0,4.2-.1,7.1-.2,8.8v4.8h20.5v-4.5c0-2-.1-6.4-.2-13.3-.1-9.3-.1-17.2-.1-23.6v-24.8c4.8-2.6,9.6-4.7,14.1-6.4,5.1-1.9,9.2-2.8,12.3-2.8,5,0,8.4,1,10.2,3.1,1.9,2.2,3,6.1,3.2,11.7v25.4c0,1.1-.1,16.2-.1,16.2-.1,4.1-.2,11.1-.2,11.1,0,2.2-.1,3.7-.1,4.4v3.4c-.1,0,20.5,0,20.5,0v-4.3c0-1.5,0-5.2,0-11"></path>
    <path class="st2" d="M218.4,157.6c.2,8.1.3,16,.3,24.3v19c0,6.6,0,14.9-.1,25,0,0-.2,16.2-.3,16.5v3.4c-.1,0,20.5,0,20.5,0v-3.3c0,0-.1-12.3-.1-12.3-.1-8.5-.1-20.1-.1-31.3s0-11.7.1-18.8v-2.6c0-6.2.1-12.9.2-20v-3.3h-20.6v3.4Z"></path>
    <path class="st2" d="M307.8,218l-28.7-63h-20.5l1.8,4.5c8.4,21.2,16.6,38.4,25.6,57.2,5.5,11.6,12.4,26,12.8,27l.8,2.2h15.1l.8-2c.2-.6,4.4-9.5,13.3-28.7l9.5-20.5c5.2-11.1,10.1-21.9,14.9-32.1l4.2-8.2-22.2-.2-27.4,63.8Z"></path>
    <path class="st2" d="M445.2,196.8c0-7.6-1.1-14.3-3-19.9-2-5.8-5-10.6-8.7-14.5-3.4-3.5-7.5-6.2-12.2-8-4.5-1.7-9.8-2.6-15.8-2.6s-11.7,1.1-17.3,3.3c-5.6,2.3-10.4,5.6-14.2,9.7-4.2,4.5-7.4,9.7-9.7,15.4-2.2,5.6-3.3,11.8-3.3,18.5s1.5,13.3,4.4,19.3c2.9,5.7,6.4,10.4,10.5,14,4.9,4.5,10.9,7.9,18.4,10.3,7.3,2.5,15.9,3.7,25.8,3.7s6.6,0,9.6-.2c2.1-.2,3.4-.3,4.2-.3l3.1-.2,2.6-17.7-4.1.3c-.7,0-2.4,0-5.2.3-2.6,0-5.8.3-9.1.3-5.9,0-10.9-.5-15-1.5-4.2-1-7.8-2.4-10.9-4.3-4.7-2.8-8.3-6.5-10.8-11-1.8-3.5-3-7.4-3.4-11.5h64v-3.4ZM383.2,184.1c1.6-4.3,4-7.8,7.1-10.5,3.8-3.5,8.5-5.2,14.4-5.2s10.4,1.7,13.8,4.9c2.8,2.7,4.7,6.3,5.8,10.7h-41.1Z"></path>
    <path class="st2" d="M517.2,152.6c-4.2,1.1-9.7,3-16.1,5.5-5,2-10.2,4.3-15.5,7v-10.9h-20.2v12c0,5.7.2,11.6.2,17.8,0,9.3,0,16.6,0,21.8,0,12.3,0,21.7,0,27.3,0,0,0,8.9,0,9.5v3.3h20.5v-3.4c0-1.2,0-6.4-.2-15.1,0-7.9,0-15.6,0-23.4v-20.3c7.9-3.5,14.8-6.3,21.2-8.5,7.1-2.5,11.9-3.9,14.7-4.6l3.1-.8-4.1-18.1-3.4.9Z"></path>
    <path class="st2" d="M600.8,174.6c-1.9-4.8-4.8-8.9-8.6-12-3.9-3.4-8.8-5.8-14.9-7.4-5.7-1.4-12.2-2.1-19.5-2.1s-8.4.1-11.1.2c-1.6.1-2.8.2-3.7.3l-4.2.3-2.2,17.6,7.8-.4c1.4,0,2.6,0,3.6-.2h1.8c1.4-.2,3.1-.3,4.8-.3,3.6,0,7.1.2,10.7.6,3.1.4,5.7,1.1,8,2,3.1,1.2,5.4,2.9,7,5.3,1.1,1.6,1.9,3.5,2.4,5.8-7,.6-13.3,1.5-18.8,2.6-6.7,1.2-11.9,2.6-16.1,4.3-6.6,2.6-11.8,6.1-15.7,10.3-3.9,4.6-5.9,10-5.9,16s1.7,10.9,5.1,15.1c3.2,4,7.4,7.1,12.8,9.4,3.8,1.6,8.3,2.9,13.4,3.9,5.1.9,10.2,1.3,15.2,1.3,8.5,0,14.7-.2,19.4-.6,2.7-.3,4.8-.5,6.4-.6l2-.2,2.9-.4v-2.9c0-.7,0-5.3,0-14.1,0-8.3,0-19.4,0-34s-.9-15.1-2.8-19.8M583.1,200.9v29.6h-2.2c-1.7.2-3.1.2-4.2.2-4,0-7.6-.2-10.8-.6-3.4-.4-6.3-1-8.9-1.9-3.3-1-5.8-2.5-7.6-4.5-1.7-1.8-2.5-4-2.5-7s.9-4.6,2.9-6.4c2.2-2.1,4.7-3.6,7.6-4.6,4.2-1.6,9.3-2.7,15.6-3.6,4.5-.6,7.7-.9,10.1-1.2"></path>
  </g>
  <g>
    <g>
      <path class="st1" d="M446,290.8l-1.9,2c-1.4-1.4-3.1-2.2-5.2-2.2-3.8,0-6.7,3-6.7,7s2.9,7,6.7,7,3.9-.9,5.3-2.2l1.8,2c-1.8,1.9-4.2,3-7,3-5.8,0-9.8-4.2-9.8-9.8s4-9.8,9.8-9.8,5.3,1.1,7,3Z"></path>
      <path class="st1" d="M469.2,297.7c0,5.6-4.3,9.8-10,9.8s-9.9-4.2-9.9-9.8,4.2-9.8,9.9-9.8c5.8-.1,10,4.1,10,9.8ZM452.3,297.7c0,4.1,3,7,6.9,7s6.9-3,6.9-7-3-7-6.9-7-6.9,2.8-6.9,7Z"></path>
      <path class="st1" d="M506.3,295.4v11.8h-3v-10.7c0-3.6-2-5.7-5.4-5.7s-5.8,2.2-5.8,5.8v10.6h-3v-10.7c0-3.6-2-5.7-5.4-5.7s-5.8,2.2-5.8,5.8v10.6h-3v-18.9h3v2.7c1.6-2.3,4-3.1,6.4-3.1s5.9,1.5,7.1,4c1.5-2.9,4.5-4,7.1-4,4.5,0,7.8,2.9,7.8,7.5Z"></path>
      <path class="st1" d="M532.4,297.7c0,5.7-4.1,9.8-9.5,9.8s-5.4-1.2-6.9-3.2v10.8h-3v-26.9h3v2.8c1.5-1.9,3.8-3.2,6.9-3.2,5.4,0,9.5,4.1,9.5,9.9ZM515.9,297.7c0,4,2.8,7,6.8,7s6.8-3.2,6.8-7-2.7-7-6.8-7c-4.1-.1-6.8,2.9-6.8,7Z"></path>
      <path class="st1" d="M555.8,307.1h-3v-2.8c-1.5,1.9-3.8,3.2-6.9,3.2-5.4,0-9.5-4.1-9.5-9.8s4.1-9.8,9.5-9.8,5.4,1.3,6.9,3.2v-2.8h3v18.8ZM539.5,297.7c0,4,2.7,7,6.8,7s6.8-3.1,6.8-7-2.8-7-6.8-7c-4.1-.1-6.8,3-6.8,7Z"></path>
      <path class="st1" d="M580.1,295.4v11.8h-3v-10.7c0-3.6-2-5.7-5.4-5.7s-5.8,2.2-5.8,5.8v10.6h-3v-18.9h3v2.7c1.6-2.3,4-3.1,6.4-3.1,4.5,0,7.8,2.9,7.8,7.5Z"></path>
      <path class="st1" d="M588.2,315.1h-3.3l7-12.2-8.7-14.8h3.3l7,11.9,6.7-11.9h3.3l-15.3,27Z"></path>
    </g>
    <path class="st1" d="M207,307.1h-3v-2.8c-1.5,1.9-3.8,3.2-6.9,3.2-5.4,0-9.5-4.1-9.5-9.8s4.1-9.8,9.5-9.8,5.4,1.3,6.9,3.2v-2.8h3v18.8ZM190.7,297.7c0,4,2.7,7,6.8,7s6.8-3.1,6.8-7-2.8-7-6.8-7c-4.1-.1-6.8,3-6.8,7Z"></path>
    <path class="st0" d="M391.6,290.6l-11.3-12.6h-2.8v29.2h7.6v-13.1l6.2,6.4h.9l6.2-6.4v13h7.6v-29.2h-2.6l-11.8,12.7ZM320.4,296.9c7.3-5,5.3-18.7-6.2-18.7h-12.7v29.1h3.5l3.9-8.5h3.9l5,8.5h8.3v-1.1l-5.7-9.3ZM314.2,291.9h-5.3v-7.3h5.3c4.4,0,4.1,7.3,0,7.3M283.3,307.1h7.3v-1.1l-13.2-28.4h-3.2l-13.1,28.4v1.1h7.3l1.8-3.7h11.4l1.7,3.7ZM279.2,297.1h-6.6l3.3-7.6,3.3,7.6ZM234,307.1l3.9-7.4h5.4c14,0,14-21.6,0-21.6h-12.7v29.1h3.4ZM243.2,293h-5.3v-8.3h5.3c4.3,0,4.2,8.3,0,8.3M359.2,307.1h7.3v-1.1l-13.2-28.4h-3.2l-13.1,28.4v1.1h7.3l1.8-3.7h11.4l1.7,3.7ZM355.1,297.1h-6.6l3.3-7.6,3.3,7.6Z"></path>
  </g>
</svg>
